<mxfile host="app.diagrams.net" agent="Mozilla/5.0 (Windows NT 10.0; Win64; x64) AppleWebKit/537.36 (KHTML, like Gecko) Chrome/129.0.0.0 Safari/537.36" version="24.7.17">
  <diagram id="6a731a19-8d31-9384-78a2-239565b7b9f0" name="Page-1">
    <mxGraphModel dx="2669" dy="813" grid="1" gridSize="10" guides="1" tooltips="1" connect="1" arrows="1" fold="1" page="1" pageScale="1" pageWidth="1169" pageHeight="827" background="none" math="0" shadow="0">
      <root>
        <mxCell id="0" />
        <mxCell id="1" parent="0" />
        <mxCell id="WwiFXqkWB7OpKlix_Tbo-1779" value="Student" style="rounded=0;whiteSpace=wrap;html=1;" vertex="1" parent="1">
          <mxGeometry x="500" y="260" width="120" height="60" as="geometry" />
        </mxCell>
        <mxCell id="WwiFXqkWB7OpKlix_Tbo-1780" value="Docent" style="rounded=0;whiteSpace=wrap;html=1;" vertex="1" parent="1">
          <mxGeometry x="540" y="20" width="120" height="60" as="geometry" />
        </mxCell>
        <mxCell id="WwiFXqkWB7OpKlix_Tbo-1781" value="Beheerder" style="rounded=0;whiteSpace=wrap;html=1;" vertex="1" parent="1">
          <mxGeometry x="-290" y="390" width="120" height="60" as="geometry" />
        </mxCell>
        <mxCell id="WwiFXqkWB7OpKlix_Tbo-1782" value="Productowner" style="rounded=0;whiteSpace=wrap;html=1;" vertex="1" parent="1">
          <mxGeometry x="920" y="260" width="120" height="60" as="geometry" />
        </mxCell>
        <mxCell id="WwiFXqkWB7OpKlix_Tbo-1783" value="LoopbaanCoach" style="rounded=0;whiteSpace=wrap;html=1;" vertex="1" parent="1">
          <mxGeometry x="230" y="260" width="120" height="60" as="geometry" />
        </mxCell>
        <mxCell id="WwiFXqkWB7OpKlix_Tbo-1784" value="" style="endArrow=classic;html=1;rounded=0;entryX=0.5;entryY=0;entryDx=0;entryDy=0;exitX=0.75;exitY=1;exitDx=0;exitDy=0;" edge="1" parent="1" source="WwiFXqkWB7OpKlix_Tbo-1780" target="WwiFXqkWB7OpKlix_Tbo-1783">
          <mxGeometry width="50" height="50" relative="1" as="geometry">
            <mxPoint x="580" y="420" as="sourcePoint" />
            <mxPoint x="1000" y="149.9999999999999" as="targetPoint" />
          </mxGeometry>
        </mxCell>
        <mxCell id="WwiFXqkWB7OpKlix_Tbo-1817" value="kan zijn" style="edgeLabel;html=1;align=center;verticalAlign=middle;resizable=0;points=[];" vertex="1" connectable="0" parent="WwiFXqkWB7OpKlix_Tbo-1784">
          <mxGeometry x="0.0752" y="-5" relative="1" as="geometry">
            <mxPoint x="11" as="offset" />
          </mxGeometry>
        </mxCell>
        <mxCell id="WwiFXqkWB7OpKlix_Tbo-1785" value="" style="endArrow=classic;html=1;rounded=0;exitX=0.25;exitY=1;exitDx=0;exitDy=0;entryX=0.5;entryY=0;entryDx=0;entryDy=0;" edge="1" parent="1" source="WwiFXqkWB7OpKlix_Tbo-1780" target="WwiFXqkWB7OpKlix_Tbo-1782">
          <mxGeometry width="50" height="50" relative="1" as="geometry">
            <mxPoint x="580" y="420" as="sourcePoint" />
            <mxPoint x="630" y="370" as="targetPoint" />
          </mxGeometry>
        </mxCell>
        <mxCell id="WwiFXqkWB7OpKlix_Tbo-1816" value="kan zijn" style="edgeLabel;html=1;align=center;verticalAlign=middle;resizable=0;points=[];" vertex="1" connectable="0" parent="WwiFXqkWB7OpKlix_Tbo-1785">
          <mxGeometry x="0.175" y="-2" relative="1" as="geometry">
            <mxPoint as="offset" />
          </mxGeometry>
        </mxCell>
        <mxCell id="WwiFXqkWB7OpKlix_Tbo-1786" value="Beoordeling" style="rounded=0;whiteSpace=wrap;html=1;" vertex="1" parent="1">
          <mxGeometry x="700" y="780" width="120" height="60" as="geometry" />
        </mxCell>
        <mxCell id="WwiFXqkWB7OpKlix_Tbo-1787" value="Onderwijsrubric" style="rounded=0;whiteSpace=wrap;html=1;" vertex="1" parent="1">
          <mxGeometry x="700" y="580" width="120" height="60" as="geometry" />
        </mxCell>
        <mxCell id="WwiFXqkWB7OpKlix_Tbo-1788" value="Onvoldoende" style="rounded=0;whiteSpace=wrap;html=1;" vertex="1" parent="1">
          <mxGeometry x="440" y="954" width="120" height="60" as="geometry" />
        </mxCell>
        <mxCell id="WwiFXqkWB7OpKlix_Tbo-1789" value="Voldoende" style="rounded=0;whiteSpace=wrap;html=1;" vertex="1" parent="1">
          <mxGeometry x="590" y="1030" width="120" height="60" as="geometry" />
        </mxCell>
        <mxCell id="WwiFXqkWB7OpKlix_Tbo-1790" value="Goede" style="rounded=0;whiteSpace=wrap;html=1;" vertex="1" parent="1">
          <mxGeometry x="810" y="1030" width="120" height="60" as="geometry" />
        </mxCell>
        <mxCell id="WwiFXqkWB7OpKlix_Tbo-1791" value="" style="endArrow=classic;html=1;rounded=0;exitX=0;exitY=1;exitDx=0;exitDy=0;entryX=0.5;entryY=0;entryDx=0;entryDy=0;" edge="1" parent="1" source="WwiFXqkWB7OpKlix_Tbo-1786" target="WwiFXqkWB7OpKlix_Tbo-1788">
          <mxGeometry width="50" height="50" relative="1" as="geometry">
            <mxPoint x="410" y="730" as="sourcePoint" />
            <mxPoint x="460" y="680" as="targetPoint" />
          </mxGeometry>
        </mxCell>
        <mxCell id="WwiFXqkWB7OpKlix_Tbo-1792" value="" style="endArrow=classic;html=1;rounded=0;exitX=0;exitY=1;exitDx=0;exitDy=0;entryX=0.5;entryY=0;entryDx=0;entryDy=0;" edge="1" parent="1" source="WwiFXqkWB7OpKlix_Tbo-1797" target="WwiFXqkWB7OpKlix_Tbo-1789">
          <mxGeometry width="50" height="50" relative="1" as="geometry">
            <mxPoint x="410" y="730" as="sourcePoint" />
            <mxPoint x="460" y="680" as="targetPoint" />
          </mxGeometry>
        </mxCell>
        <mxCell id="WwiFXqkWB7OpKlix_Tbo-1793" value="" style="endArrow=classic;html=1;rounded=0;exitX=1;exitY=1;exitDx=0;exitDy=0;entryX=0.5;entryY=0;entryDx=0;entryDy=0;" edge="1" parent="1" source="WwiFXqkWB7OpKlix_Tbo-1797" target="WwiFXqkWB7OpKlix_Tbo-1790">
          <mxGeometry width="50" height="50" relative="1" as="geometry">
            <mxPoint x="410" y="730" as="sourcePoint" />
            <mxPoint x="460" y="680" as="targetPoint" />
          </mxGeometry>
        </mxCell>
        <mxCell id="WwiFXqkWB7OpKlix_Tbo-1795" value="" style="endArrow=classic;html=1;rounded=0;exitX=0.5;exitY=1;exitDx=0;exitDy=0;entryX=0.5;entryY=0;entryDx=0;entryDy=0;" edge="1" parent="1" source="WwiFXqkWB7OpKlix_Tbo-1787" target="WwiFXqkWB7OpKlix_Tbo-1786">
          <mxGeometry width="50" height="50" relative="1" as="geometry">
            <mxPoint x="770" y="609.9999999999998" as="sourcePoint" />
            <mxPoint x="470" y="566" as="targetPoint" />
          </mxGeometry>
        </mxCell>
        <mxCell id="WwiFXqkWB7OpKlix_Tbo-1815" value="heeft" style="edgeLabel;html=1;align=center;verticalAlign=middle;resizable=0;points=[];" vertex="1" connectable="0" parent="WwiFXqkWB7OpKlix_Tbo-1795">
          <mxGeometry x="0.0693" y="4" relative="1" as="geometry">
            <mxPoint y="1" as="offset" />
          </mxGeometry>
        </mxCell>
        <mxCell id="WwiFXqkWB7OpKlix_Tbo-1797" value="Fase" style="rounded=0;whiteSpace=wrap;html=1;" vertex="1" parent="1">
          <mxGeometry x="700" y="930" width="120" height="60" as="geometry" />
        </mxCell>
        <mxCell id="WwiFXqkWB7OpKlix_Tbo-1800" value="" style="endArrow=classic;html=1;rounded=0;exitX=0.5;exitY=1;exitDx=0;exitDy=0;entryX=0.5;entryY=0;entryDx=0;entryDy=0;" edge="1" parent="1" source="WwiFXqkWB7OpKlix_Tbo-1786" target="WwiFXqkWB7OpKlix_Tbo-1797">
          <mxGeometry width="50" height="50" relative="1" as="geometry">
            <mxPoint x="410" y="730" as="sourcePoint" />
            <mxPoint x="460" y="680" as="targetPoint" />
          </mxGeometry>
        </mxCell>
        <mxCell id="WwiFXqkWB7OpKlix_Tbo-1801" value="&lt;h1 style=&quot;margin-top: 0px;&quot;&gt;&lt;br&gt;&lt;/h1&gt;&lt;div&gt;Fases: orientatiefase, development fase,&lt;/div&gt;&lt;div&gt;expertfase&lt;/div&gt;" style="text;html=1;whiteSpace=wrap;overflow=hidden;rounded=0;" vertex="1" parent="1">
          <mxGeometry x="820" y="881" width="180" height="100" as="geometry" />
        </mxCell>
        <mxCell id="WwiFXqkWB7OpKlix_Tbo-1802" value="Project" style="rounded=0;whiteSpace=wrap;html=1;" vertex="1" parent="1">
          <mxGeometry x="710" y="240" width="120" height="60" as="geometry" />
        </mxCell>
        <mxCell id="WwiFXqkWB7OpKlix_Tbo-1803" value="verantwoording" style="rounded=0;whiteSpace=wrap;html=1;" vertex="1" parent="1">
          <mxGeometry x="700" y="414" width="120" height="60" as="geometry" />
        </mxCell>
        <mxCell id="WwiFXqkWB7OpKlix_Tbo-1804" value="" style="endArrow=classic;html=1;rounded=0;exitX=1;exitY=0.5;exitDx=0;exitDy=0;entryX=0;entryY=0.5;entryDx=0;entryDy=0;" edge="1" parent="1" source="WwiFXqkWB7OpKlix_Tbo-1779" target="WwiFXqkWB7OpKlix_Tbo-1802">
          <mxGeometry width="50" height="50" relative="1" as="geometry">
            <mxPoint x="330" y="490" as="sourcePoint" />
            <mxPoint x="380" y="440" as="targetPoint" />
          </mxGeometry>
        </mxCell>
        <mxCell id="WwiFXqkWB7OpKlix_Tbo-1813" value="doet&lt;div&gt;&lt;br&gt;&lt;/div&gt;" style="edgeLabel;html=1;align=center;verticalAlign=middle;resizable=0;points=[];" vertex="1" connectable="0" parent="WwiFXqkWB7OpKlix_Tbo-1804">
          <mxGeometry x="-0.2628" y="-2" relative="1" as="geometry">
            <mxPoint y="1" as="offset" />
          </mxGeometry>
        </mxCell>
        <mxCell id="WwiFXqkWB7OpKlix_Tbo-1805" value="" style="endArrow=classic;html=1;rounded=0;exitX=0.5;exitY=1;exitDx=0;exitDy=0;entryX=0;entryY=0.5;entryDx=0;entryDy=0;" edge="1" parent="1" source="WwiFXqkWB7OpKlix_Tbo-1779" target="WwiFXqkWB7OpKlix_Tbo-1803">
          <mxGeometry width="50" height="50" relative="1" as="geometry">
            <mxPoint x="330" y="490" as="sourcePoint" />
            <mxPoint x="380" y="440" as="targetPoint" />
          </mxGeometry>
        </mxCell>
        <mxCell id="WwiFXqkWB7OpKlix_Tbo-1818" value="geeft" style="edgeLabel;html=1;align=center;verticalAlign=middle;resizable=0;points=[];" vertex="1" connectable="0" parent="WwiFXqkWB7OpKlix_Tbo-1805">
          <mxGeometry x="0.315" y="1" relative="1" as="geometry">
            <mxPoint x="-1" as="offset" />
          </mxGeometry>
        </mxCell>
        <mxCell id="WwiFXqkWB7OpKlix_Tbo-1806" value="" style="endArrow=classic;html=1;rounded=0;exitX=0.5;exitY=0;exitDx=0;exitDy=0;entryX=0.5;entryY=1;entryDx=0;entryDy=0;" edge="1" parent="1" source="WwiFXqkWB7OpKlix_Tbo-1803" target="WwiFXqkWB7OpKlix_Tbo-1802">
          <mxGeometry width="50" height="50" relative="1" as="geometry">
            <mxPoint x="400" y="410" as="sourcePoint" />
            <mxPoint x="380" y="440" as="targetPoint" />
          </mxGeometry>
        </mxCell>
        <mxCell id="WwiFXqkWB7OpKlix_Tbo-1812" value="gaat over&lt;div&gt;&lt;br&gt;&lt;/div&gt;" style="edgeLabel;html=1;align=center;verticalAlign=middle;resizable=0;points=[];" vertex="1" connectable="0" parent="WwiFXqkWB7OpKlix_Tbo-1806">
          <mxGeometry x="0.2371" y="-1" relative="1" as="geometry">
            <mxPoint y="1" as="offset" />
          </mxGeometry>
        </mxCell>
        <mxCell id="WwiFXqkWB7OpKlix_Tbo-1807" value="" style="endArrow=classic;html=1;rounded=0;entryX=0.5;entryY=0;entryDx=0;entryDy=0;exitX=0.5;exitY=1;exitDx=0;exitDy=0;" edge="1" parent="1" source="WwiFXqkWB7OpKlix_Tbo-1803" target="WwiFXqkWB7OpKlix_Tbo-1787">
          <mxGeometry width="50" height="50" relative="1" as="geometry">
            <mxPoint x="600" y="420" as="sourcePoint" />
            <mxPoint x="380" y="440" as="targetPoint" />
          </mxGeometry>
        </mxCell>
        <mxCell id="WwiFXqkWB7OpKlix_Tbo-1814" value="gaat over" style="edgeLabel;html=1;align=center;verticalAlign=middle;resizable=0;points=[];" vertex="1" connectable="0" parent="WwiFXqkWB7OpKlix_Tbo-1807">
          <mxGeometry x="-0.1666" y="-1" relative="1" as="geometry">
            <mxPoint as="offset" />
          </mxGeometry>
        </mxCell>
        <mxCell id="WwiFXqkWB7OpKlix_Tbo-1808" value="" style="endArrow=classic;html=1;rounded=0;exitX=0;exitY=0.5;exitDx=0;exitDy=0;entryX=1;entryY=0.5;entryDx=0;entryDy=0;" edge="1" parent="1" source="WwiFXqkWB7OpKlix_Tbo-1782" target="WwiFXqkWB7OpKlix_Tbo-1802">
          <mxGeometry width="50" height="50" relative="1" as="geometry">
            <mxPoint x="970" y="380" as="sourcePoint" />
            <mxPoint x="1020" y="330" as="targetPoint" />
          </mxGeometry>
        </mxCell>
        <mxCell id="WwiFXqkWB7OpKlix_Tbo-1811" value="begeleid&lt;div&gt;&lt;br&gt;&lt;/div&gt;" style="edgeLabel;html=1;align=center;verticalAlign=middle;resizable=0;points=[];" vertex="1" connectable="0" parent="WwiFXqkWB7OpKlix_Tbo-1808">
          <mxGeometry x="-0.1832" y="2" relative="1" as="geometry">
            <mxPoint as="offset" />
          </mxGeometry>
        </mxCell>
        <mxCell id="WwiFXqkWB7OpKlix_Tbo-1809" value="" style="endArrow=classic;html=1;rounded=0;exitX=0.25;exitY=1;exitDx=0;exitDy=0;entryX=1;entryY=0.5;entryDx=0;entryDy=0;" edge="1" parent="1" source="WwiFXqkWB7OpKlix_Tbo-1782" target="WwiFXqkWB7OpKlix_Tbo-1803">
          <mxGeometry width="50" height="50" relative="1" as="geometry">
            <mxPoint x="850" y="520" as="sourcePoint" />
            <mxPoint x="900" y="470" as="targetPoint" />
          </mxGeometry>
        </mxCell>
        <mxCell id="WwiFXqkWB7OpKlix_Tbo-1810" value="Geeft feedback of keurt goed&lt;div&gt;&lt;br&gt;&lt;/div&gt;" style="edgeLabel;html=1;align=center;verticalAlign=middle;resizable=0;points=[];" vertex="1" connectable="0" parent="WwiFXqkWB7OpKlix_Tbo-1809">
          <mxGeometry x="-0.196" y="1" relative="1" as="geometry">
            <mxPoint x="1" as="offset" />
          </mxGeometry>
        </mxCell>
        <mxCell id="WwiFXqkWB7OpKlix_Tbo-1819" value="" style="endArrow=classic;html=1;rounded=0;exitX=1;exitY=0.5;exitDx=0;exitDy=0;entryX=0;entryY=0.5;entryDx=0;entryDy=0;" edge="1" parent="1" source="WwiFXqkWB7OpKlix_Tbo-1783" target="WwiFXqkWB7OpKlix_Tbo-1779">
          <mxGeometry width="50" height="50" relative="1" as="geometry">
            <mxPoint x="500" y="390" as="sourcePoint" />
            <mxPoint x="550" y="340" as="targetPoint" />
          </mxGeometry>
        </mxCell>
        <mxCell id="WwiFXqkWB7OpKlix_Tbo-1820" value="begeleid" style="edgeLabel;html=1;align=center;verticalAlign=middle;resizable=0;points=[];" vertex="1" connectable="0" parent="WwiFXqkWB7OpKlix_Tbo-1819">
          <mxGeometry x="0.1192" y="-1" relative="1" as="geometry">
            <mxPoint as="offset" />
          </mxGeometry>
        </mxCell>
        <mxCell id="WwiFXqkWB7OpKlix_Tbo-1821" value="klas" style="rounded=0;whiteSpace=wrap;html=1;" vertex="1" parent="1">
          <mxGeometry x="560" y="150" width="120" height="60" as="geometry" />
        </mxCell>
        <mxCell id="WwiFXqkWB7OpKlix_Tbo-1822" value="" style="endArrow=classic;html=1;rounded=0;exitX=0.5;exitY=0;exitDx=0;exitDy=0;entryX=0.5;entryY=1;entryDx=0;entryDy=0;" edge="1" parent="1" source="WwiFXqkWB7OpKlix_Tbo-1779" target="WwiFXqkWB7OpKlix_Tbo-1821">
          <mxGeometry width="50" height="50" relative="1" as="geometry">
            <mxPoint x="500" y="390" as="sourcePoint" />
            <mxPoint x="550" y="340" as="targetPoint" />
          </mxGeometry>
        </mxCell>
        <mxCell id="WwiFXqkWB7OpKlix_Tbo-1823" value="zit in" style="edgeLabel;html=1;align=center;verticalAlign=middle;resizable=0;points=[];" vertex="1" connectable="0" parent="WwiFXqkWB7OpKlix_Tbo-1822">
          <mxGeometry x="0.1045" y="1" relative="1" as="geometry">
            <mxPoint y="1" as="offset" />
          </mxGeometry>
        </mxCell>
        <mxCell id="WwiFXqkWB7OpKlix_Tbo-1826" value="" style="endArrow=classic;html=1;rounded=0;exitX=0.5;exitY=1;exitDx=0;exitDy=0;entryX=0;entryY=0.5;entryDx=0;entryDy=0;" edge="1" parent="1" source="WwiFXqkWB7OpKlix_Tbo-1783" target="WwiFXqkWB7OpKlix_Tbo-1803">
          <mxGeometry width="50" height="50" relative="1" as="geometry">
            <mxPoint x="440" y="600" as="sourcePoint" />
            <mxPoint x="490" y="550" as="targetPoint" />
          </mxGeometry>
        </mxCell>
        <mxCell id="WwiFXqkWB7OpKlix_Tbo-1827" value="kan zien&lt;div&gt;&lt;br&gt;&lt;/div&gt;" style="edgeLabel;html=1;align=center;verticalAlign=middle;resizable=0;points=[];" vertex="1" connectable="0" parent="WwiFXqkWB7OpKlix_Tbo-1826">
          <mxGeometry x="0.1739" y="-3" relative="1" as="geometry">
            <mxPoint as="offset" />
          </mxGeometry>
        </mxCell>
        <mxCell id="WwiFXqkWB7OpKlix_Tbo-1828" value="examencommissie" style="rounded=0;whiteSpace=wrap;html=1;" vertex="1" parent="1">
          <mxGeometry x="80" y="414" width="120" height="60" as="geometry" />
        </mxCell>
        <mxCell id="WwiFXqkWB7OpKlix_Tbo-1829" value="" style="endArrow=classic;html=1;rounded=0;exitX=0.5;exitY=1;exitDx=0;exitDy=0;entryX=0.5;entryY=0;entryDx=0;entryDy=0;" edge="1" parent="1" source="WwiFXqkWB7OpKlix_Tbo-1783" target="WwiFXqkWB7OpKlix_Tbo-1828">
          <mxGeometry width="50" height="50" relative="1" as="geometry">
            <mxPoint x="440" y="600" as="sourcePoint" />
            <mxPoint x="490" y="550" as="targetPoint" />
          </mxGeometry>
        </mxCell>
        <mxCell id="WwiFXqkWB7OpKlix_Tbo-1830" value="stuurt overzicht naar&lt;div&gt;&lt;br&gt;&lt;/div&gt;" style="edgeLabel;html=1;align=center;verticalAlign=middle;resizable=0;points=[];" vertex="1" connectable="0" parent="WwiFXqkWB7OpKlix_Tbo-1829">
          <mxGeometry x="-0.0617" y="-5" relative="1" as="geometry">
            <mxPoint as="offset" />
          </mxGeometry>
        </mxCell>
        <mxCell id="WwiFXqkWB7OpKlix_Tbo-1836" value="" style="endArrow=classic;html=1;rounded=0;exitX=0;exitY=1;exitDx=0;exitDy=0;" edge="1" parent="1" source="WwiFXqkWB7OpKlix_Tbo-1779" target="WwiFXqkWB7OpKlix_Tbo-1837">
          <mxGeometry width="50" height="50" relative="1" as="geometry">
            <mxPoint x="440" y="600" as="sourcePoint" />
            <mxPoint x="460" y="500" as="targetPoint" />
          </mxGeometry>
        </mxCell>
        <mxCell id="WwiFXqkWB7OpKlix_Tbo-1837" value="&lt;h1 style=&quot;margin-top: 0px;&quot;&gt;Info&lt;/h1&gt;&lt;p&gt;Studentnummer&lt;/p&gt;&lt;p&gt;Voornaam, tussenvoegsel, achternaam&lt;br&gt;klas&lt;br&gt;cohort&lt;br&gt;geboortedatum&lt;br&gt;Foto&lt;/p&gt;" style="text;html=1;whiteSpace=wrap;overflow=hidden;rounded=0;" vertex="1" parent="1">
          <mxGeometry x="-170" y="640" width="180" height="170" as="geometry" />
        </mxCell>
        <mxCell id="WwiFXqkWB7OpKlix_Tbo-1838" value="" style="endArrow=classic;html=1;rounded=0;exitX=0.5;exitY=1;exitDx=0;exitDy=0;" edge="1" parent="1" source="WwiFXqkWB7OpKlix_Tbo-1779" target="WwiFXqkWB7OpKlix_Tbo-1839">
          <mxGeometry width="50" height="50" relative="1" as="geometry">
            <mxPoint x="440" y="600" as="sourcePoint" />
            <mxPoint x="490" y="550" as="targetPoint" />
          </mxGeometry>
        </mxCell>
        <mxCell id="WwiFXqkWB7OpKlix_Tbo-1840" value="Studeert" style="edgeLabel;html=1;align=center;verticalAlign=middle;resizable=0;points=[];" vertex="1" connectable="0" parent="WwiFXqkWB7OpKlix_Tbo-1838">
          <mxGeometry x="0.2982" y="-4" relative="1" as="geometry">
            <mxPoint as="offset" />
          </mxGeometry>
        </mxCell>
        <mxCell id="WwiFXqkWB7OpKlix_Tbo-1839" value="Crebo" style="rounded=0;whiteSpace=wrap;html=1;" vertex="1" parent="1">
          <mxGeometry x="465.0000000000002" y="550" width="120" height="60" as="geometry" />
        </mxCell>
        <mxCell id="WwiFXqkWB7OpKlix_Tbo-1841" value="" style="endArrow=classic;html=1;rounded=0;exitX=1;exitY=0.5;exitDx=0;exitDy=0;entryX=0;entryY=0.5;entryDx=0;entryDy=0;" edge="1" parent="1" source="WwiFXqkWB7OpKlix_Tbo-1839" target="WwiFXqkWB7OpKlix_Tbo-1787">
          <mxGeometry width="50" height="50" relative="1" as="geometry">
            <mxPoint x="440" y="900" as="sourcePoint" />
            <mxPoint x="490" y="850" as="targetPoint" />
          </mxGeometry>
        </mxCell>
        <mxCell id="WwiFXqkWB7OpKlix_Tbo-1842" value="Heeft meerdere" style="edgeLabel;html=1;align=center;verticalAlign=middle;resizable=0;points=[];" vertex="1" connectable="0" parent="WwiFXqkWB7OpKlix_Tbo-1841">
          <mxGeometry x="-0.0386" y="4" relative="1" as="geometry">
            <mxPoint as="offset" />
          </mxGeometry>
        </mxCell>
        <mxCell id="WwiFXqkWB7OpKlix_Tbo-1843" value="" style="endArrow=classic;html=1;rounded=0;exitX=1;exitY=0.5;exitDx=0;exitDy=0;entryX=0;entryY=0.5;entryDx=0;entryDy=0;" edge="1" parent="1" source="WwiFXqkWB7OpKlix_Tbo-1781" target="WwiFXqkWB7OpKlix_Tbo-1839">
          <mxGeometry width="50" height="50" relative="1" as="geometry">
            <mxPoint x="440" y="470" as="sourcePoint" />
            <mxPoint x="490" y="420" as="targetPoint" />
          </mxGeometry>
        </mxCell>
        <mxCell id="WwiFXqkWB7OpKlix_Tbo-1844" value="Voegt toe&lt;div&gt;&lt;br&gt;&lt;/div&gt;" style="edgeLabel;html=1;align=center;verticalAlign=middle;resizable=0;points=[];" vertex="1" connectable="0" parent="WwiFXqkWB7OpKlix_Tbo-1843">
          <mxGeometry x="0.1122" y="5" relative="1" as="geometry">
            <mxPoint y="1" as="offset" />
          </mxGeometry>
        </mxCell>
        <mxCell id="WwiFXqkWB7OpKlix_Tbo-1845" value="" style="endArrow=classic;html=1;rounded=0;exitX=1;exitY=0;exitDx=0;exitDy=0;entryX=0;entryY=0.5;entryDx=0;entryDy=0;" edge="1" parent="1" source="WwiFXqkWB7OpKlix_Tbo-1781" target="WwiFXqkWB7OpKlix_Tbo-1780">
          <mxGeometry width="50" height="50" relative="1" as="geometry">
            <mxPoint x="440" y="470" as="sourcePoint" />
            <mxPoint x="490" y="420" as="targetPoint" />
          </mxGeometry>
        </mxCell>
        <mxCell id="WwiFXqkWB7OpKlix_Tbo-1846" value="beheerd" style="edgeLabel;html=1;align=center;verticalAlign=middle;resizable=0;points=[];" vertex="1" connectable="0" parent="WwiFXqkWB7OpKlix_Tbo-1845">
          <mxGeometry x="-0.551" y="-5" relative="1" as="geometry">
            <mxPoint as="offset" />
          </mxGeometry>
        </mxCell>
        <mxCell id="WwiFXqkWB7OpKlix_Tbo-1847" value="" style="endArrow=classic;html=1;rounded=0;exitX=1;exitY=0.25;exitDx=0;exitDy=0;entryX=0;entryY=0.5;entryDx=0;entryDy=0;" edge="1" parent="1" source="WwiFXqkWB7OpKlix_Tbo-1781" target="WwiFXqkWB7OpKlix_Tbo-1783">
          <mxGeometry width="50" height="50" relative="1" as="geometry">
            <mxPoint x="440" y="470" as="sourcePoint" />
            <mxPoint x="490" y="420" as="targetPoint" />
          </mxGeometry>
        </mxCell>
        <mxCell id="WwiFXqkWB7OpKlix_Tbo-1848" value="Koppelt aan student&lt;div&gt;&lt;br&gt;&lt;/div&gt;" style="edgeLabel;html=1;align=center;verticalAlign=middle;resizable=0;points=[];" vertex="1" connectable="0" parent="WwiFXqkWB7OpKlix_Tbo-1847">
          <mxGeometry x="0.1168" y="-2" relative="1" as="geometry">
            <mxPoint x="1" as="offset" />
          </mxGeometry>
        </mxCell>
      </root>
    </mxGraphModel>
  </diagram>
</mxfile>
